HIERARCHY
ROOT Hips
{
	OFFSET 0.000000 97.167313 0.000000
	CHANNELS 6 Xposition Yposition Zposition Xrotation Yrotation Zrotation
	JOINT Spine
	{
		OFFSET 0.000000 13.784798 0.064400
		CHANNELS 3 Xrotation Yrotation Zrotation
		JOINT Spine1
		{
			OFFSET 0.000000 12.037903 0.404700
			CHANNELS 3 Xrotation Yrotation Zrotation
			JOINT Spine2
			{
				OFFSET 0.000000 17.795601 0.420200
				CHANNELS 3 Xrotation Yrotation Zrotation
				JOINT Neck
				{
					OFFSET 0.000000 39.131302 11.954600
					CHANNELS 3 Xrotation Yrotation Zrotation
					JOINT Head
					{
						OFFSET 0.000000 14.456192 15.627699
						CHANNELS 3 Xrotation Yrotation Zrotation
						JOINT HeadTop_End
						{
							OFFSET 0.000000 15.703506 7.603401
							CHANNELS 3 Xrotation Yrotation Zrotation
							End Site
							{
								OFFSET 0.000000 17.447403 0.000000
							}
						}
					}
				}
				JOINT LeftShoulder
				{
					OFFSET 17.399500 24.608795 1.168800
					CHANNELS 3 Xrotation Yrotation Zrotation
					JOINT LeftArm
					{
						OFFSET 18.980635 5.765305 1.818600
						CHANNELS 3 Xrotation Yrotation Zrotation
						JOINT LeftForeArm
						{
							OFFSET 49.290169 0.000000 0.000000
							CHANNELS 3 Xrotation Yrotation Zrotation
							JOINT LeftHand
							{
								OFFSET 31.562012 0.000000 0.000000
								CHANNELS 3 Xrotation Yrotation Zrotation
								JOINT LeftHandThumb1
								{
									OFFSET 6.133995 -4.388519 7.076070
									CHANNELS 3 Xrotation Yrotation Zrotation
									JOINT LeftHandThumb2
									{
										OFFSET 6.037666 -3.485840 3.485847
										CHANNELS 3 Xrotation Yrotation Zrotation
										JOINT LeftHandThumb3
										{
											OFFSET 6.496506 -3.750763 3.750761
											CHANNELS 3 Xrotation Yrotation Zrotation
											JOINT LeftHandThumb4
											{
												OFFSET 5.616882 -3.242905 3.242910
												CHANNELS 3 Xrotation Yrotation Zrotation
												End Site
												{
													OFFSET -1.254608 7.132141 0.375429
												}
											}
										}
									}
								}
								JOINT LeftHandPinky1
								{
									OFFSET 18.920792 -0.453171 -11.426712
									CHANNELS 3 Xrotation Yrotation Zrotation
									JOINT LeftHandPinky2
									{
										OFFSET 4.919586 0.000000 0.000000
										CHANNELS 3 Xrotation Yrotation Zrotation
										JOINT LeftHandPinky3
										{
											OFFSET 5.233047 0.000000 0.000000
											CHANNELS 3 Xrotation Yrotation Zrotation
											JOINT LeftHandPinky4
											{
												OFFSET 5.571716 0.000000 0.000000
												CHANNELS 3 Xrotation Yrotation Zrotation
												End Site
												{
													OFFSET -3.459808 4.342407 -0.466164
												}
											}
										}
									}
								}
								JOINT LeftHandRing1
								{
									OFFSET 22.726120 -0.094986 -6.500475
									CHANNELS 3 Xrotation Yrotation Zrotation
									JOINT LeftHandRing2
									{
										OFFSET 6.408615 0.000000 0.000000
										CHANNELS 3 Xrotation Yrotation Zrotation
										JOINT LeftHandRing3
										{
											OFFSET 6.150223 0.000000 0.000000
											CHANNELS 3 Xrotation Yrotation Zrotation
											JOINT LeftHandRing4
											{
												OFFSET 6.145386 0.000000 0.000000
												CHANNELS 3 Xrotation Yrotation Zrotation
												End Site
												{
													OFFSET -3.671402 4.923981 -0.202372
												}
											}
										}
									}
								}
								JOINT LeftHandMiddle1
								{
									OFFSET 23.373947 0.000000 0.000001
									CHANNELS 3 Xrotation Yrotation Zrotation
									JOINT LeftHandMiddle2
									{
										OFFSET 6.996567 0.000000 0.000000
										CHANNELS 3 Xrotation Yrotation Zrotation
										JOINT LeftHandMiddle3
										{
											OFFSET 7.015945 0.000000 0.000000
											CHANNELS 3 Xrotation Yrotation Zrotation
											JOINT LeftHandMiddle4
											{
												OFFSET 7.721573 0.000000 0.000000
												CHANNELS 3 Xrotation Yrotation Zrotation
												End Site
												{
													OFFSET -4.651108 6.158463 0.251582
												}
											}
										}
									}
								}
								JOINT LeftHandIndex1
								{
									OFFSET 21.310577 -0.490082 6.209344
									CHANNELS 3 Xrotation Yrotation Zrotation
									JOINT LeftHandIndex2
									{
										OFFSET 7.536453 0.000000 0.000000
										CHANNELS 3 Xrotation Yrotation Zrotation
										JOINT LeftHandIndex3
										{
											OFFSET 7.512344 0.000000 0.000000
											CHANNELS 3 Xrotation Yrotation Zrotation
											JOINT LeftHandIndex4
											{
												OFFSET 10.212402 0.000000 0.000001
												CHANNELS 3 Xrotation Yrotation Zrotation
												End Site
												{
													OFFSET -5.180801 8.690506 1.388433
												}
											}
										}
									}
								}
							}
						}
					}
				}
				JOINT RightShoulder
				{
					OFFSET -17.399500 24.608795 1.168800
					CHANNELS 3 Xrotation Yrotation Zrotation
					JOINT RightArm
					{
						OFFSET -18.980635 5.765305 1.818600
						CHANNELS 3 Xrotation Yrotation Zrotation
						JOINT RightForeArm
						{
							OFFSET -49.290169 0.000000 0.000000
							CHANNELS 3 Xrotation Yrotation Zrotation
							JOINT RightHand
							{
								OFFSET -31.562012 0.000000 0.000000
								CHANNELS 3 Xrotation Yrotation Zrotation
								JOINT RightHandThumb1
								{
									OFFSET -6.133995 -4.388519 7.076070
									CHANNELS 3 Xrotation Yrotation Zrotation
									JOINT RightHandThumb2
									{
										OFFSET -6.037666 -3.485840 3.485847
										CHANNELS 3 Xrotation Yrotation Zrotation
										JOINT RightHandThumb3
										{
											OFFSET -6.496506 -3.750763 3.750761
											CHANNELS 3 Xrotation Yrotation Zrotation
											JOINT RightHandThumb4
											{
												OFFSET -5.616882 -3.242905 3.242910
												CHANNELS 3 Xrotation Yrotation Zrotation
												End Site
												{
													OFFSET 1.254608 7.132141 0.375429
												}
											}
										}
									}
								}
								JOINT RightHandIndex1
								{
									OFFSET -21.310577 -0.490082 6.209344
									CHANNELS 3 Xrotation Yrotation Zrotation
									JOINT RightHandIndex2
									{
										OFFSET -7.536453 0.000000 0.000000
										CHANNELS 3 Xrotation Yrotation Zrotation
										JOINT RightHandIndex3
										{
											OFFSET -7.512344 0.000000 0.000000
											CHANNELS 3 Xrotation Yrotation Zrotation
											JOINT RightHandIndex4
											{
												OFFSET -10.212402 0.000000 0.000001
												CHANNELS 3 Xrotation Yrotation Zrotation
												End Site
												{
													OFFSET 5.180801 8.690506 1.388433
												}
											}
										}
									}
								}
								JOINT RightHandMiddle1
								{
									OFFSET -23.373947 0.000000 0.000001
									CHANNELS 3 Xrotation Yrotation Zrotation
									JOINT RightHandMiddle2
									{
										OFFSET -6.996567 0.000000 0.000000
										CHANNELS 3 Xrotation Yrotation Zrotation
										JOINT RightHandMiddle3
										{
											OFFSET -7.015945 0.000000 0.000000
											CHANNELS 3 Xrotation Yrotation Zrotation
											JOINT RightHandMiddle4
											{
												OFFSET -7.721573 0.000000 0.000000
												CHANNELS 3 Xrotation Yrotation Zrotation
												End Site
												{
													OFFSET 4.651108 6.158463 0.251582
												}
											}
										}
									}
								}
								JOINT RightHandRing1
								{
									OFFSET -22.726120 -0.094986 -6.500475
									CHANNELS 3 Xrotation Yrotation Zrotation
									JOINT RightHandRing2
									{
										OFFSET -6.408615 0.000000 0.000000
										CHANNELS 3 Xrotation Yrotation Zrotation
										JOINT RightHandRing3
										{
											OFFSET -6.150223 0.000000 0.000000
											CHANNELS 3 Xrotation Yrotation Zrotation
											JOINT RightHandRing4
											{
												OFFSET -6.145386 0.000000 0.000000
												CHANNELS 3 Xrotation Yrotation Zrotation
												End Site
												{
													OFFSET 3.671402 4.923981 -0.202372
												}
											}
										}
									}
								}
								JOINT RightHandPinky1
								{
									OFFSET -18.920792 -0.453171 -11.426712
									CHANNELS 3 Xrotation Yrotation Zrotation
									JOINT RightHandPinky2
									{
										OFFSET -4.919586 0.000000 0.000000
										CHANNELS 3 Xrotation Yrotation Zrotation
										JOINT RightHandPinky3
										{
											OFFSET -5.233047 0.000000 0.000000
											CHANNELS 3 Xrotation Yrotation Zrotation
											JOINT RightHandPinky4
											{
												OFFSET -5.571716 0.000000 0.000000
												CHANNELS 3 Xrotation Yrotation Zrotation
												End Site
												{
													OFFSET 3.459808 4.342407 -0.466164
												}
											}
										}
									}
								}
							}
						}
					}
				}
			}
		}
	}
	JOINT LeftUpLeg
	{
		OFFSET 19.899099 -7.885101 -3.429500
		CHANNELS 3 Xrotation Yrotation Zrotation
		JOINT LeftLeg
		{
			OFFSET 1.745560 -36.997807 10.304700
			CHANNELS 3 Xrotation Yrotation Zrotation
			JOINT LeftFoot
			{
				OFFSET -1.745558 -29.803308 -13.615400
				CHANNELS 3 Xrotation Yrotation Zrotation
				JOINT LeftToeBase
				{
					OFFSET 1.181900 -18.539904 15.226099
					CHANNELS 3 Xrotation Yrotation Zrotation
					JOINT LeftToe_End
					{
						OFFSET -0.863701 1.402801 16.534700
						CHANNELS 3 Xrotation Yrotation Zrotation
						End Site
						{
							OFFSET 0.000000 16.616566 0.000000
						}
					}
				}
			}
		}
	}
	JOINT RightUpLeg
	{
		OFFSET -19.899099 -7.885101 -3.429500
		CHANNELS 3 Xrotation Yrotation Zrotation
		JOINT RightLeg
		{
			OFFSET -1.745560 -36.997807 10.304700
			CHANNELS 3 Xrotation Yrotation Zrotation
			JOINT RightFoot
			{
				OFFSET 1.745558 -29.803308 -13.615400
				CHANNELS 3 Xrotation Yrotation Zrotation
				JOINT RightToeBase
				{
					OFFSET -1.181900 -18.539904 15.226099
					CHANNELS 3 Xrotation Yrotation Zrotation
					JOINT RightToe_End
					{
						OFFSET 0.863701 1.402801 16.534700
						CHANNELS 3 Xrotation Yrotation Zrotation
						End Site
						{
							OFFSET 0.000000 16.616566 0.000000
						}
					}
				}
			}
		}
	}
}
MOTION
Frames: 4
Frame Time: 0.033333
-3.373026 76.950455 1.612487 3.020223 -58.274464 6.385926 11.191143 0.164867 -2.607203 8.434594 0.027669 -5.592321 8.457034 0.027896 -5.591872 -21.555408 25.063369 12.062496 -0.294216 25.465790 -3.209047 0.000000 0.000000 -0.000001 -6.221632 -11.503817 -4.023747 -23.062258 9.568501 -36.639638 0.046114 -43.168899 -0.011193 22.743808 -5.685969 15.979352 -1.064258 -7.954939 8.490070 2.373452 19.986098 -2.038352 0.808194 1.237793 2.631773 -0.000000 -0.000000 -0.000002 -5.636065 7.709865 -13.878646 0.224374 0.276572 -46.588382 0.261250 0.249343 -46.286843 -0.000000 0.000000 -0.000002 6.111734 3.150907 -16.210949 0.047085 0.322474 -30.125512 0.408818 0.818913 -42.140648 -0.000001 0.000001 0.000003 8.495441 -0.329581 -0.915320 0.231497 0.661193 -29.901854 0.444119 0.213461 -44.357007 -0.000001 0.000000 0.000006 13.340881 -1.006707 10.682264 -0.167603 0.303354 -31.105645 -0.143366 0.303629 -32.256227 0.000001 -0.000000 0.000001 -5.488218 10.658270 2.466465 -41.473909 -26.755529 30.079043 24.955725 111.862871 -23.308741 -8.702506 12.423065 -9.801909 0.265014 10.061089 -10.888506 1.383825 -17.412840 3.016278 3.342343 -13.253720 -8.262774 0.000001 -0.000001 0.000001 19.443617 11.174424 -13.340206 -0.118671 -0.322721 18.035610 -0.089909 -0.286592 23.256615 0.000000 -0.000003 -0.000002 4.320468 2.436925 -4.811750 0.349126 -0.461232 26.890342 0.467502 0.154042 39.044834 -0.000001 0.000001 -0.000004 -7.005640 -10.695139 5.719829 0.111889 -0.089215 26.155854 0.451322 -0.473573 33.265098 -0.000004 0.000000 -0.000002 -19.433522 -20.238233 5.987867 0.223829 -0.085752 36.844568 0.260779 -0.047491 36.471711 -0.000002 -0.000001 0.000000 -34.176214 8.007692 29.898788 41.224235 -10.934247 -11.565372 -9.026147 -0.584863 -11.940347 -0.327612 1.238469 0.837251 -0.000000 -0.000002 -0.000000 -28.986093 -6.547796 -33.058150 48.771164 8.389135 -4.785397 -22.849223 -1.278355 24.381972 -0.322813 -0.997470 -0.837148 -0.000000 0.000001 0.000000 
-3.415552 76.838867 1.575364 2.829694 -58.276629 6.224678 11.525160 0.189685 -2.634301 8.304123 0.131319 -5.596911 8.339810 0.140308 -5.561360 -21.412225 25.700260 12.099731 0.180351 27.207867 -3.737699 -0.000000 0.000000 0.000000 -6.188048 -11.467627 -4.006051 -23.078340 9.121154 -36.422424 0.044914 -42.361694 -0.012997 22.647044 -5.942165 15.869120 -1.064255 -7.954938 8.490066 2.408493 20.129715 -1.995707 0.829142 1.375796 2.681391 -0.000001 -0.000000 -0.000002 -5.603359 7.747719 -14.390298 0.225792 0.277832 -47.034752 0.262541 0.250355 -46.677892 0.000003 0.000002 -0.000002 6.119802 3.159359 -16.657272 0.048315 0.324501 -30.516544 0.409983 0.819921 -42.486048 -0.000000 0.000001 0.000003 8.491620 -0.325439 -1.306344 0.232350 0.662623 -30.247216 0.445165 0.214067 -44.664291 0.000001 -0.000001 0.000004 13.338965 -1.015931 10.337264 -0.167253 0.303952 -31.412887 -0.142975 0.304092 -32.531361 -0.000001 0.000001 0.000001 -5.479826 10.861440 2.430245 -41.927345 -27.850199 29.012636 24.541092 112.226265 -22.861471 -8.631877 12.279876 -9.982029 0.053439 10.172290 -10.724003 1.539455 -17.818599 2.861195 3.429992 -13.653850 -8.396386 -0.000003 -0.000001 0.000001 19.334695 11.081662 -13.281594 -0.118186 -0.319516 18.484652 -0.089352 -0.284461 23.530748 -0.000001 0.000000 -0.000001 4.349857 2.270752 -4.913650 0.349500 -0.464025 27.195945 0.466510 0.150750 39.325880 0.000002 0.000004 -0.000001 -6.784318 -10.782776 5.507999 0.112584 -0.093475 26.685761 0.450694 -0.475624 33.732276 0.000003 0.000001 -0.000001 -18.893435 -20.363306 6.008634 0.224232 -0.088275 37.687966 0.263074 -0.050436 37.184916 -0.000002 0.000000 -0.000003 -34.126244 7.897526 30.079115 41.566755 -10.286465 -11.379143 -9.158559 -1.282676 -12.363064 -0.334292 1.238508 0.835758 0.000000 -0.000000 -0.000000 -29.386773 -7.064407 -33.316590 49.130459 10.199298 -4.198835 -22.964086 -2.002700 23.009348 -0.358862 -0.996615 -0.838265 -0.000000 0.000000 0.000000 
-3.503648 76.632149 1.494419 2.582243 -58.253884 6.008155 12.298108 0.243002 -2.687493 7.998793 0.355121 -5.606167 8.064968 0.384368 -5.490714 -21.078932 27.173465 12.165058 0.808141 30.519966 -4.743497 -0.000000 -0.000000 -0.000001 -6.106174 -11.401636 -3.948848 -23.117028 8.132098 -36.031399 0.042273 -40.540045 -0.016971 22.409455 -6.553676 15.602160 -1.064257 -7.954938 8.490066 2.492182 20.474942 -1.893191 0.878900 1.707962 2.800770 0.000000 0.000002 -0.000001 -5.527526 7.837833 -15.607576 0.229356 0.280716 -48.100415 0.265549 0.252661 -47.614113 0.000004 -0.000002 -0.000004 6.138813 3.179700 -17.722813 0.051351 0.329272 -31.452768 0.412847 0.822289 -43.315021 0.000000 -0.000000 0.000005 8.482559 -0.315411 -2.242556 0.234397 0.665942 -31.076135 0.447660 0.215576 -45.403351 0.000001 -0.000001 0.000004 13.334564 -1.038104 9.509183 -0.166411 0.305443 -32.151944 -0.142025 0.305224 -33.194351 -0.000003 0.000001 0.000002 -5.459960 11.327738 2.342584 -42.798874 -30.004755 26.822459 23.829405 112.882878 -22.091002 -8.465685 11.933606 -10.413312 -0.451240 10.434645 -10.328068 1.907120 -18.787139 2.494832 3.634639 -14.608632 -8.712963 0.000001 0.000000 -0.000000 19.073631 10.858041 -13.142190 -0.117300 -0.311842 19.565702 -0.088144 -0.279355 24.191992 0.000002 -0.000003 -0.000001 4.417947 1.872021 -5.157059 0.350485 -0.470676 27.930312 0.464360 0.142642 40.002611 0.000000 -0.000001 -0.000004 -6.258665 -11.000161 5.004527 0.114559 -0.103748 27.956109 0.449379 -0.480406 34.854793 0.000002 -0.000002 -0.000000 -17.604558 -20.666648 6.069724 0.225369 -0.094135 39.697982 0.268974 -0.057127 38.884783 -0.000002 -0.000000 0.000006 -34.086158 7.654116 30.436641 42.140163 -9.169041 -11.117765 -9.373717 -2.495336 -13.110096 -0.353816 1.238494 0.839712 -0.000000 -0.000004 -0.000000 -30.281801 -8.145315 -33.819617 49.793739 13.247895 -3.310688 -23.180859 -2.998891 20.652916 -0.481274 -0.995054 -0.842081 0.000000 0.000000 0.000000 
-3.580251 76.465523 1.341775 2.382671 -58.161349 5.817038 13.313870 0.296801 -2.747273 7.587153 0.601134 -5.614101 7.693442 0.656895 -5.397536 -20.643987 29.107162 12.182885 1.217347 32.535039 -5.820268 0.000000 0.000000 -0.000000 -5.986126 -11.367627 -3.824694 -23.178080 6.966673 -35.852834 0.039224 -38.284894 -0.021700 22.058439 -7.414599 15.217233 -1.064255 -7.954934 8.490069 2.610277 20.967159 -1.747061 0.948454 2.182549 2.971268 -0.000000 0.000001 -0.000002 -5.425941 7.963920 -17.307399 0.234449 0.284557 -49.599082 0.269927 0.255908 -48.938770 -0.000000 0.000000 -0.000002 6.165091 3.208936 -19.221327 0.055686 0.336068 -32.777354 0.417157 0.825612 -44.493874 -0.000002 0.000000 0.000005 8.470075 -0.301081 -3.567028 0.237333 0.670683 -32.255022 0.451394 0.217811 -46.458984 0.000000 -0.000001 0.000004 13.328847 -1.069392 8.331549 -0.165177 0.307395 -33.207557 -0.140677 0.306828 -34.145058 -0.000001 0.000001 -0.000001 -5.433494 11.929397 2.216491 -43.192798 -31.777025 24.950068 23.517923 113.184082 -21.752442 -8.237677 11.434628 -11.024343 -1.159483 10.796132 -9.764036 2.414924 -20.148409 1.988753 3.911581 -15.949482 -9.152597 -0.000003 0.000002 -0.000003 18.703170 10.537814 -12.947059 -0.116676 -0.300847 21.112977 -0.086666 -0.272001 25.141863 0.000001 -0.000003 0.000001 4.509007 1.305463 -5.500406 0.352280 -0.480071 28.977019 0.461672 0.130996 40.971122 -0.000000 -0.000002 -0.000004 -5.525477 -11.325498 4.301461 0.117913 -0.118048 29.758151 0.447967 -0.487404 36.454786 0.000001 -0.000001 -0.000005 -15.793778 -21.103401 6.183199 0.227504 -0.102235 42.515277 0.277818 -0.065922 41.267351 -0.000003 -0.000001 0.000004 -34.108489 7.370023 30.785766 42.329271 -8.925136 -11.278881 -9.344384 -2.882549 -13.352139 -0.391736 1.238067 0.867365 0.000000 0.000001 -0.000000 -31.180579 -9.251775 -34.228069 50.434301 13.883460 -3.528988 -23.406811 -2.318017 20.131966 -0.759205 -0.993651 -0.850638 0.000000 -0.000000 0.000000 
